<svg width="1149" height="785" viewBox="0 0 1149 785" fill="none" xmlns="http://www.w3.org/2000/svg">
<g clip-path="url(#clip0)">
<path opacity="0.1" d="M1109.64 416.19L1109.64 416.188C1135.58 376.166 1149.61 325.135 1145.56 275.19C1141.51 225.241 1118.81 177.14 1083.21 148.982C1064.15 133.911 1042.58 124.958 1020.3 117.5C1012.98 115.053 1005.59 112.765 998.183 110.473C983.05 105.79 967.87 101.093 953.247 94.9915L953.44 94.53L953.247 94.9913C930.747 85.5846 909.491 72.8049 888.323 59.8805C887.252 59.2266 886.181 58.5722 885.11 57.918C865.008 45.6349 844.932 33.3676 823.844 23.8357C787.889 7.62004 748.759 -0.338644 709.327 0.543933C669.894 1.42651 631.159 11.1279 595.966 28.9362L595.74 28.4901L595.966 28.9362C578.417 37.8103 560.796 50.9702 542.847 64.3749C536.065 69.44 529.236 74.5401 522.347 79.457C497.27 97.3539 471.409 112.806 444.28 114.988L444.279 114.989C434.592 115.745 422.512 113.888 409.422 111.271C404.759 110.339 399.969 109.311 395.107 108.268C386.289 106.375 377.236 104.432 368.279 102.921C354.393 100.577 340.813 99.2849 328.848 100.836C316.893 102.386 306.587 106.77 299.186 115.748C294.266 121.718 292.099 129.909 289.955 138.009C289.748 138.791 289.542 139.572 289.333 140.35C270.297 211.324 223.395 268.391 170.013 309.137C158.724 317.757 146.254 327.813 137.221 339.554C128.194 351.287 122.633 364.658 125.074 379.931C126.388 388.136 129.932 395.274 134.248 402.067C136.407 405.464 138.754 408.767 141.11 412.075L141.267 412.296C143.568 415.527 145.874 418.763 148.001 422.08C148.001 422.08 148.001 422.08 148.001 422.08L147.58 422.35L1109.64 416.19ZM1109.64 416.19C1096.5 436.616 1079.89 454.59 1060.56 469.301C1043.41 482.219 1024.75 491.796 1005.72 500.663C1000.42 503.13 995.094 505.543 989.763 507.958C975.948 514.216 962.104 520.488 948.692 527.75C907.936 549.813 871.425 580.852 835.004 611.816C832.779 613.707 830.555 615.598 828.33 617.486C789.661 650.311 750.804 682.43 706.717 703.148C649.252 730.148 584.624 736.066 524.24 719.857L1109.64 416.19Z" fill="#00FFED" stroke="#E2FFFD"/>
<path d="M992.13 347.08C992.13 347.08 977.57 297.63 994.86 261.24C1002.21 246.021 1004.43 228.827 1001.18 212.24C999.574 204.377 997.251 196.679 994.24 189.24" stroke="#535461" stroke-width="2" stroke-miterlimit="10"/>
<path d="M1005.05 166.25C1005.05 172.31 994.05 189.88 994.05 189.88C994.05 189.88 983.05 172.31 983.05 166.25C982.938 164.741 983.139 163.226 983.64 161.798C984.141 160.37 984.93 159.061 985.96 157.952C986.99 156.844 988.237 155.96 989.624 155.355C991.01 154.75 992.507 154.438 994.02 154.438C995.533 154.438 997.03 154.75 998.416 155.355C999.803 155.96 1001.05 156.844 1002.08 157.952C1003.11 159.061 1003.9 160.37 1004.4 161.798C1004.9 163.226 1005.1 164.741 1004.99 166.25H1005.05Z" fill="#66AAA7"/>
<path d="M1023.14 199.81C1019.85 204.9 1001.05 213.69 1001.05 213.69C1001.05 213.69 1001.39 192.98 1004.68 187.89C1006.35 185.665 1008.81 184.158 1011.55 183.671C1014.29 183.185 1017.11 183.756 1019.45 185.27C1021.79 186.783 1023.46 189.126 1024.14 191.826C1024.82 194.526 1024.45 197.383 1023.1 199.82L1023.14 199.81Z" fill="#66AAA7"/>
<path d="M1022.35 257.18C1016.94 259.91 996.35 258.02 996.35 258.02C996.35 258.02 1007.1 240.31 1012.51 237.58C1015.08 236.515 1017.95 236.46 1020.55 237.425C1023.16 238.391 1025.3 240.306 1026.55 242.786C1027.8 245.266 1028.07 248.127 1027.29 250.795C1026.52 253.463 1024.77 255.74 1022.39 257.17L1022.35 257.18Z" fill="#66AAA7"/>
<path d="M1011.98 300.49C1007.11 304.09 986.45 305.72 986.45 305.72C986.45 305.72 994.05 286.45 998.93 282.84C1001.28 281.413 1004.08 280.917 1006.77 281.449C1009.47 281.981 1011.87 283.502 1013.5 285.715C1015.13 287.927 1015.87 290.669 1015.58 293.402C1015.29 296.134 1013.99 298.659 1011.93 300.48L1011.98 300.49Z" fill="#66AAA7"/>
<path d="M978.05 214.86C982.4 219.08 1002.65 223.46 1002.65 223.46C1002.65 223.46 997.65 203.35 993.34 199.12C992.334 197.993 991.107 197.085 989.735 196.452C988.363 195.82 986.876 195.477 985.365 195.445C983.855 195.413 982.354 195.692 980.956 196.266C979.559 196.839 978.294 197.694 977.241 198.778C976.189 199.862 975.371 201.151 974.838 202.564C974.305 203.978 974.07 205.486 974.145 206.995C974.221 208.504 974.607 209.981 975.279 211.334C975.951 212.687 976.894 213.887 978.05 214.86V214.86Z" fill="#66AAA7"/>
<path d="M966.56 265.62C971.97 268.35 992.56 266.46 992.56 266.46C992.56 266.46 981.81 248.75 976.4 246.02C973.835 244.955 970.962 244.9 968.358 245.866C965.754 246.831 963.611 248.746 962.361 251.226C961.11 253.706 960.844 256.567 961.615 259.235C962.387 261.903 964.139 264.18 966.52 265.61L966.56 265.62Z" fill="#66AAA7"/>
<path d="M962.16 316.49C967.03 320.09 987.69 321.72 987.69 321.72C987.69 321.72 980.09 302.45 975.21 298.84C974.066 297.828 972.724 297.066 971.27 296.601C969.815 296.136 968.28 295.98 966.761 296.141C965.243 296.302 963.774 296.778 962.45 297.537C961.125 298.297 959.973 299.324 959.067 300.554C958.161 301.783 957.521 303.187 957.188 304.677C956.854 306.168 956.835 307.711 957.13 309.209C957.426 310.707 958.03 312.127 958.905 313.379C959.779 314.631 960.905 315.687 962.21 316.48L962.16 316.49Z" fill="#6C63FF"/>
<path opacity="0.1" d="M1160.03 171.812C1160.03 177.872 1149.03 195.442 1149.03 195.442C1149.03 195.442 1138.03 177.872 1138.03 171.812C1137.92 170.303 1138.12 168.787 1138.62 167.36C1139.12 165.932 1139.91 164.623 1140.94 163.514C1141.97 162.406 1143.22 161.521 1144.6 160.917C1145.99 160.312 1147.49 160 1149 160C1150.51 160 1152.01 160.312 1153.4 160.917C1154.78 161.521 1156.03 162.406 1157.06 163.514C1158.09 164.623 1158.88 165.932 1159.38 167.36C1159.88 168.787 1160.08 170.303 1159.97 171.812H1160.03Z" fill="#66AAA7"/>
<path opacity="0.1" d="M962.16 316.49C967.03 320.09 987.69 321.72 987.69 321.72C987.69 321.72 980.09 302.45 975.21 298.84C974.066 297.828 972.724 297.066 971.27 296.601C969.815 296.136 968.28 295.98 966.761 296.141C965.243 296.302 963.774 296.778 962.45 297.537C961.125 298.297 959.973 299.324 959.067 300.554C958.161 301.783 957.521 303.187 957.188 304.677C956.854 306.168 956.835 307.711 957.13 309.209C957.426 310.707 958.03 312.127 958.905 313.379C959.779 314.631 960.905 315.687 962.21 316.48L962.16 316.49Z" fill="#6C63FF"/>
<path d="M1053.13 426.08C1053.13 426.08 1038.57 376.63 1055.86 340.24C1063.21 325.021 1065.43 307.827 1062.18 291.24C1060.57 283.377 1058.25 275.679 1055.24 268.24" stroke="#535461" stroke-width="2" stroke-miterlimit="10"/>
<path d="M1066.05 245.25C1066.05 251.31 1055.05 268.88 1055.05 268.88C1055.05 268.88 1044.05 251.31 1044.05 245.25C1043.94 243.741 1044.14 242.226 1044.64 240.798C1045.14 239.37 1045.93 238.061 1046.96 236.952C1047.99 235.844 1049.24 234.96 1050.62 234.355C1052.01 233.75 1053.51 233.438 1055.02 233.438C1056.53 233.438 1058.03 233.75 1059.42 234.355C1060.8 234.96 1062.05 235.844 1063.08 236.952C1064.11 238.061 1064.9 239.37 1065.4 240.798C1065.9 242.226 1066.1 243.741 1065.99 245.25H1066.05Z" fill="#66AAA7"/>
<path d="M1084.14 278.81C1080.85 283.9 1062.09 292.68 1062.09 292.68C1062.09 292.68 1062.43 271.97 1065.72 266.88C1066.45 265.559 1067.44 264.402 1068.64 263.481C1069.84 262.56 1071.21 261.895 1072.67 261.528C1074.14 261.161 1075.66 261.099 1077.15 261.346C1078.64 261.593 1080.06 262.144 1081.33 262.965C1082.6 263.786 1083.68 264.858 1084.52 266.116C1085.35 267.374 1085.92 268.79 1086.18 270.276C1086.44 271.763 1086.4 273.287 1086.05 274.755C1085.7 276.223 1085.05 277.604 1084.14 278.81Z" fill="#66AAA7"/>
<path d="M1083.35 336.18C1077.94 338.91 1057.35 337.02 1057.35 337.02C1057.35 337.02 1068.1 319.31 1073.51 316.58C1074.81 315.801 1076.25 315.299 1077.75 315.103C1079.25 314.907 1080.77 315.023 1082.23 315.444C1083.68 315.864 1085.03 316.579 1086.2 317.545C1087.36 318.511 1088.31 319.707 1088.99 321.057C1089.68 322.408 1090.07 323.885 1090.15 325.395C1090.24 326.905 1090.01 328.417 1089.49 329.835C1088.96 331.253 1088.15 332.548 1087.1 333.638C1086.05 334.728 1084.79 335.59 1083.39 336.17L1083.35 336.18Z" fill="#6C63FF"/>
<path d="M1072.98 379.49C1068.11 383.09 1047.45 384.72 1047.45 384.72C1047.45 384.72 1055.05 365.45 1059.93 361.84C1062.28 360.413 1065.08 359.917 1067.77 360.449C1070.47 360.981 1072.87 362.502 1074.5 364.715C1076.13 366.927 1076.87 369.669 1076.58 372.402C1076.29 375.134 1074.99 377.659 1072.93 379.48L1072.98 379.49Z" fill="#6C63FF"/>
<path d="M1039.05 293.86C1043.4 298.08 1063.65 302.46 1063.65 302.46C1063.65 302.46 1058.65 282.35 1054.34 278.12C1052.21 276.329 1049.48 275.412 1046.71 275.551C1043.93 275.691 1041.31 276.878 1039.37 278.873C1037.43 280.868 1036.32 283.523 1036.26 286.304C1036.2 289.085 1037.2 291.784 1039.05 293.86V293.86Z" fill="#66AAA7"/>
<path d="M1027.56 344.62C1032.97 347.35 1053.56 345.46 1053.56 345.46C1053.56 345.46 1042.81 327.75 1037.4 325.02C1034.83 323.955 1031.96 323.9 1029.36 324.865C1026.75 325.831 1024.61 327.746 1023.36 330.226C1022.11 332.706 1021.84 335.567 1022.62 338.235C1023.39 340.903 1025.14 343.18 1027.52 344.61L1027.56 344.62Z" fill="#6C63FF"/>
<path d="M1023.16 395.49C1028.03 399.09 1048.69 400.72 1048.69 400.72C1048.69 400.72 1041.09 381.45 1036.21 377.84C1035.07 376.828 1033.72 376.066 1032.27 375.601C1030.82 375.136 1029.28 374.98 1027.76 375.141C1026.24 375.302 1024.77 375.778 1023.45 376.537C1022.13 377.297 1020.97 378.324 1020.07 379.554C1019.16 380.783 1018.52 382.187 1018.19 383.677C1017.85 385.168 1017.83 386.711 1018.13 388.209C1018.43 389.707 1019.03 391.127 1019.9 392.379C1020.78 393.631 1021.9 394.687 1023.21 395.48L1023.16 395.49Z" fill="#6C63FF"/>
<path opacity="0.1" d="M1158.05 275.612C1154.76 280.702 1136 289.482 1136 289.482C1136 289.482 1136.34 268.772 1139.63 263.682C1140.36 262.361 1141.35 261.204 1142.55 260.283C1143.75 259.362 1145.12 258.698 1146.58 258.33C1148.05 257.963 1149.57 257.901 1151.06 258.148C1152.55 258.396 1153.97 258.947 1155.24 259.767C1156.51 260.588 1157.59 261.66 1158.43 262.918C1159.26 264.176 1159.83 265.592 1160.09 267.078C1160.35 268.565 1160.31 270.089 1159.96 271.558C1159.61 273.026 1158.96 274.406 1158.05 275.612V275.612Z" fill="#66AAA7"/>
<path opacity="0.1" d="M1083.35 336.18C1077.94 338.91 1057.35 337.02 1057.35 337.02C1057.35 337.02 1068.1 319.31 1073.51 316.58C1074.81 315.801 1076.25 315.299 1077.75 315.103C1079.25 314.907 1080.77 315.023 1082.23 315.444C1083.68 315.864 1085.03 316.579 1086.2 317.545C1087.36 318.511 1088.31 319.707 1088.99 321.057C1089.68 322.408 1090.07 323.885 1090.15 325.395C1090.24 326.905 1090.01 328.417 1089.49 329.835C1088.96 331.253 1088.15 332.548 1087.1 333.638C1086.05 334.728 1084.79 335.59 1083.39 336.17L1083.35 336.18Z" fill="#6C63FF"/>
<path opacity="0.1" d="M1072.98 379.49C1068.11 383.09 1047.45 384.72 1047.45 384.72C1047.45 384.72 1055.05 365.45 1059.93 361.84C1062.28 360.413 1065.08 359.917 1067.77 360.449C1070.47 360.981 1072.87 362.502 1074.5 364.715C1076.13 366.927 1076.87 369.669 1076.58 372.402C1076.29 375.134 1074.99 377.659 1072.93 379.48L1072.98 379.49Z" fill="#6C63FF"/>
<path opacity="0.1" d="M1027.56 344.62C1032.97 347.35 1053.56 345.46 1053.56 345.46C1053.56 345.46 1042.81 327.75 1037.4 325.02C1034.83 323.955 1031.96 323.9 1029.36 324.865C1026.75 325.831 1024.61 327.746 1023.36 330.226C1022.11 332.706 1021.84 335.567 1022.62 338.235C1023.39 340.903 1025.14 343.18 1027.52 344.61L1027.56 344.62Z" fill="#6C63FF"/>
<path opacity="0.1" d="M1023.16 395.49C1028.03 399.09 1048.69 400.72 1048.69 400.72C1048.69 400.72 1041.09 381.45 1036.21 377.84C1035.07 376.828 1033.72 376.066 1032.27 375.601C1030.82 375.136 1029.28 374.98 1027.76 375.141C1026.24 375.302 1024.77 375.778 1023.45 376.537C1022.13 377.297 1020.97 378.324 1020.07 379.554C1019.16 380.783 1018.52 382.187 1018.19 383.677C1017.85 385.168 1017.83 386.711 1018.13 388.209C1018.43 389.707 1019.03 391.127 1019.9 392.379C1020.78 393.631 1021.9 394.687 1023.21 395.48L1023.16 395.49Z" fill="#6C63FF"/>
<path opacity="0.1" d="M663.943 591.41C935.561 564.922 1152.29 508.005 1148.03 464.284C1143.77 420.563 920.12 406.593 648.503 433.082C376.885 459.57 160.152 516.487 164.416 560.208C168.68 603.929 392.326 617.899 663.943 591.41Z" fill="black"/>
<path d="M1105.23 471.25C1123.72 433.35 1119.9 371.66 1117.93 350.72C1117.5 346.14 1117.16 343.51 1117.16 343.51C1117.16 343.51 1100.86 340.94 1106.87 321.21C1109.81 311.55 1099.37 306.21 1087.97 303.28C1079.82 301.331 1071.5 300.156 1063.13 299.77L905.24 290.02C883.59 255.66 840.99 261.18 840.99 261.18C840.99 261.18 802.99 257.23 776.05 256.82C771.961 253.218 767.48 250.088 762.69 247.49C759.836 245.775 756.797 244.389 753.63 243.36C749.78 242.249 745.724 242.055 741.786 242.793C737.847 243.531 734.136 245.181 730.95 247.61C729.397 248.727 728.132 250.198 727.26 251.9C726.924 252.674 726.673 253.482 726.51 254.31C726.104 255.722 725.77 257.154 725.51 258.6C725.275 259.296 724.938 259.953 724.51 260.55C723.43 262.08 721.57 263.23 721.33 265.08C721.324 265.187 721.324 265.293 721.33 265.4C721.132 265.753 721 266.14 720.94 266.54C720.868 267.363 721.046 268.189 721.45 268.91C721.51 269.03 721.58 269.14 721.65 269.25C720.321 271.175 719.236 273.257 718.42 275.45C718.05 275.651 717.693 275.875 717.35 276.12L717.05 276.34V276.95L716.88 277.08L716.51 286.93L716.72 287.09C717.023 291.685 718.409 296.143 720.766 300.099C723.123 304.055 726.383 307.396 730.28 309.85C730.41 310.48 730.53 311.12 730.65 311.79C731.199 315.02 731.447 318.294 731.39 321.57H731.22C726.52 319.57 718.48 322.51 711.57 325.94H622.05C639.51 303.48 660.87 286.06 660.87 286.06V266.32C645.61 265.56 511.55 329.96 482.16 344.18L480.86 344.81L329.81 349.49C302.45 349.32 278.53 353.34 257.81 359.89C223.186 370.766 192.072 390.644 167.65 417.49C149.81 437.07 141.99 453.25 141.99 453.25L142.16 454.61L141.99 454.96L142.23 455.17L146.3 487.29L149.1 509.39C129.64 521.97 154.85 527.01 154.85 527.01C178.85 547.59 217.46 546.74 217.46 546.74C226.89 559.61 254.34 557.89 254.34 557.89H398.43C400.674 544.661 403.679 531.573 407.43 518.69C413.58 562.98 448.53 596.91 490.71 596.91C493.839 596.908 496.964 596.718 500.07 596.34C503.176 596.718 506.301 596.908 509.43 596.91C552.1 596.91 587.36 562.18 592.91 517.15H599.96C598.644 527.211 596.357 537.12 593.13 546.74C722.64 509 963.65 490.99 963.65 490.99C964.65 481.49 965.75 472.31 966.94 463.5C976.87 488.15 999.38 505.36 1025.58 505.36C1027.96 505.357 1030.34 505.21 1032.7 504.92C1035.06 505.21 1037.44 505.357 1039.82 505.36C1070.93 505.36 1096.82 481.09 1102.66 448.91C1103.43 454.589 1103.87 460.309 1103.98 466.04C1102.87 471.5 1101.9 474.99 1101.77 475.48C1102.55 474.053 1103.29 472.593 1103.99 471.1C1103.99 471.68 1103.99 472.28 1103.99 472.88C1103.75 473.88 1103.58 474.44 1103.53 474.63L1103.97 473.81C1103.97 474.25 1103.97 474.68 1103.97 475.12C1103.87 475.16 1104.4 473.72 1105.23 471.25Z" fill="url(#paint0_linear)"/>
<path d="M1090.12 335.07H793.22V454.84H1090.12V335.07Z" fill="#6F7D95"/>
<path d="M717.73 278.98L759.9 373.45L843.41 368.39L846.78 329.59L849.31 284.04L731.23 275.6L717.73 278.98Z" fill="#4B5C7A"/>
<path d="M717.73 278.98C717.73 278.98 733.73 263.8 753.16 260.42C772.59 257.04 837.51 263.79 837.51 263.79L846.79 279.79L845.05 287.41L717.73 278.98Z" fill="#000454"/>
<path d="M876.72 327.48H577.29V415.2H876.72V327.48Z" fill="#4B5C7A"/>
<path d="M803.05 387.16C810.96 360.71 795.19 343.33 795.19 343.33L769.05 325.09C769.028 325.152 769.001 325.212 768.97 325.27C765.57 321.286 763.137 316.57 761.86 311.49C761.78 311.17 761.71 310.84 761.63 310.49C764.02 308.715 766.112 306.571 767.83 304.14C772.09 301.53 773.99 297.33 774.71 293.14C777.45 289.073 779.633 284.657 781.2 280.01C781.459 279.258 781.679 278.494 781.86 277.72C782.364 276.279 782.588 274.755 782.52 273.23C782.307 271.532 781.742 269.897 780.86 268.43C776.46 260.43 768.54 254.86 760.51 250.32C757.703 248.634 754.714 247.272 751.6 246.26C747.815 245.169 743.826 244.979 739.954 245.704C736.082 246.43 732.433 248.052 729.3 250.44C727.772 251.539 726.528 252.985 725.67 254.66C725.339 255.421 725.091 256.216 724.93 257.03C724.542 258.42 724.225 259.828 723.98 261.25C723.762 261.929 723.445 262.573 723.04 263.16C721.97 264.66 720.15 265.79 719.91 267.62C719.904 267.727 719.904 267.833 719.91 267.94C719.717 268.287 719.588 268.667 719.53 269.06C719.456 269.869 719.63 270.682 720.03 271.39C720.09 271.51 720.16 271.62 720.23 271.73C718.921 273.624 717.853 275.673 717.05 277.83C716.683 278.028 716.329 278.249 715.99 278.49L715.7 278.7V279.3L715.53 279.43L715.16 289.12L715.36 289.28C715.655 293.8 717.017 298.185 719.334 302.077C721.651 305.969 724.857 309.256 728.69 311.67C728.82 312.29 728.94 312.92 729.05 313.58C729.654 317.069 729.895 320.611 729.77 324.15C729.731 323.845 729.731 323.535 729.77 323.23C722.54 319.96 706.77 329 700.42 333C699.457 333.456 698.56 334.038 697.75 334.73L697.64 334.81C693.27 338.35 684.64 348.19 677.79 373.48C668.29 408.77 669.28 416.77 662.36 424.95C655.44 433.13 648.57 490.76 648.57 490.76L662.5 494.51L664.28 488.79C680.84 503.89 727.21 511.16 727.21 511.16L728.63 506.75C735.74 509.31 747.63 505.42 747.63 505.42C765.01 499.28 771.52 483.7 784.13 463.15C796.74 442.6 803.05 387.16 803.05 387.16ZM732.95 493.49L765.05 393.92C767.96 409.38 755.12 433.73 753.98 449.65C753.27 459.89 741.35 480.24 732.95 493.49Z" fill="url(#paint1_linear)"/>
<path d="M773.11 282.39C773.11 282.39 778.7 303.68 762.11 307.39C745.52 311.1 756.45 297.82 756.45 297.82L772.45 282.23L773.11 282.39Z" fill="#472727"/>
<path d="M703.75 333.13C703.75 333.13 691.41 338.13 682.34 371.81C673.27 405.49 674.17 413.09 667.64 420.92C661.11 428.75 654.42 483.69 654.42 483.69L667.48 487.21L678.85 450.49L710.12 353.49L703.75 333.13Z" fill="#DDE0E4"/>
<path opacity="0.05" d="M703.75 333.13C703.75 333.13 691.41 338.13 682.34 371.81C673.27 405.49 674.17 413.09 667.64 420.92C661.11 428.75 654.42 483.69 654.42 483.69L667.48 487.21L678.85 450.49L710.12 353.49L703.75 333.13Z" fill="black"/>
<path d="M772.27 329.33C772.27 329.33 720.61 355.59 728.17 338.46C731.91 330 731.77 321.23 730.68 314.46C730.058 310.472 728.967 306.572 727.43 302.84C727.43 302.84 762.55 275.06 760.49 297.74C759.997 302.622 760.335 307.551 761.49 312.32C764.53 324.35 772.27 329.33 772.27 329.33Z" fill="#DB8B8B"/>
<path opacity="0.1" d="M761.49 312.36C758.168 315.028 754.261 316.872 750.09 317.741C745.919 318.61 741.601 318.479 737.49 317.36C735.086 316.713 732.781 315.741 730.64 314.47C730.018 310.482 728.927 306.582 727.39 302.85C727.39 302.85 762.51 275.07 760.45 297.75C759.966 302.644 760.318 307.584 761.49 312.36Z" fill="black"/>
<path d="M771.042 296.938C774.925 282.518 766.383 267.681 751.963 263.798C737.543 259.915 722.705 268.457 718.822 282.878C714.94 297.298 723.482 312.135 737.902 316.018C752.322 319.901 767.16 311.359 771.042 296.938Z" fill="#DB8B8B"/>
<path opacity="0.1" d="M731.35 276.72C730.608 277.173 729.782 277.472 728.922 277.598C728.062 277.724 727.185 277.675 726.345 277.453C725.504 277.232 724.717 276.843 724.031 276.31C723.344 275.776 722.772 275.11 722.35 274.35C721.979 273.672 721.819 272.899 721.89 272.13C722.12 270.39 723.84 269.31 724.89 267.87C726.52 265.54 726.21 262.35 727.39 259.76C728.202 258.178 729.374 256.808 730.81 255.76C733.733 253.475 737.154 251.915 740.795 251.206C744.436 250.497 748.194 250.659 751.76 251.68C754.678 252.632 757.476 253.917 760.1 255.51C767.62 259.8 775.03 265.05 779.1 272.68C779.925 274.08 780.449 275.636 780.64 277.25C780.685 278.993 780.379 280.728 779.74 282.35C778.236 286.832 776.141 291.093 773.51 295.02C772.63 293.927 771.525 293.037 770.27 292.41C769.636 292.111 768.925 292.018 768.235 292.145C767.546 292.273 766.915 292.614 766.43 293.12C765.56 294.23 765.03 296.35 763.71 295.85C762.85 295.53 762.86 294.34 762.9 293.42C763.08 289.42 760.9 285.65 757.97 282.95C755.04 280.25 751.41 278.47 747.83 276.72C745.26 275.46 741.83 272.57 739.01 272.06C735.51 271.41 733.86 275.17 731.35 276.72Z" fill="black"/>
<path d="M731.72 275.35C730.978 275.803 730.152 276.102 729.292 276.228C728.432 276.354 727.555 276.305 726.715 276.083C725.874 275.862 725.087 275.473 724.401 274.94C723.714 274.406 723.142 273.74 722.72 272.98C722.349 272.302 722.189 271.529 722.26 270.76C722.49 269.02 724.21 267.94 725.26 266.5C726.89 264.17 726.58 260.98 727.76 258.39C728.572 256.808 729.744 255.438 731.18 254.39C734.103 252.105 737.524 250.545 741.165 249.836C744.806 249.127 748.564 249.289 752.13 250.31C755.048 251.262 757.846 252.547 760.47 254.14C767.99 258.43 775.4 263.68 779.47 271.31C780.295 272.71 780.819 274.266 781.01 275.88C781.055 277.623 780.749 279.358 780.11 280.98C778.606 285.462 776.511 289.723 773.88 293.65C773 292.557 771.895 291.667 770.64 291.04C770.006 290.741 769.295 290.648 768.605 290.775C767.916 290.903 767.285 291.244 766.8 291.75C765.93 292.86 765.4 294.98 764.08 294.48C763.22 294.16 763.23 292.97 763.27 292.05C763.45 288.05 761.27 284.28 758.34 281.58C755.41 278.88 751.78 277.1 748.2 275.35C745.63 274.09 742.2 271.2 739.38 270.69C735.88 270.03 734.23 273.8 731.72 275.35Z" fill="#472727"/>
<path d="M745.88 332.91C745.88 332.91 767.27 328.72 768.2 325.29L792.66 342.56C792.66 342.56 807.38 359.05 799.85 384.29C799.85 384.29 793.72 437.18 781.8 456.81C769.88 476.44 763.03 501.87 746.7 507.81C746.7 507.81 731 497.69 725.82 497.81C725.82 497.81 752.41 459.28 753.55 444.11C754.69 428.94 766.84 405.68 764.18 390.96L728.18 502.86C728.18 502.86 670.18 493.86 664.3 474.61C664.3 474.61 669.3 467.1 668.37 459.49C667.44 451.88 690.25 394.63 690.25 394.63L701.17 334.93C701.17 334.93 722.77 319.84 731.37 323.76C731.33 323.7 729.77 331.15 745.88 332.91Z" fill="#DDE0E4"/>
<g opacity="0.1">
<path opacity="0.1" d="M753.67 286.49C748.39 279.29 738.32 285.2 736.67 286.23L734.08 285.97C731.82 283.51 724.89 276.97 718.38 281.78L718.1 281.99L717.71 291.22L717.99 291.44C719.87 292.892 722.003 293.983 724.28 294.66C725.722 295.084 727.243 295.159 728.72 294.88C729.813 294.628 730.837 294.139 731.719 293.448C732.602 292.757 733.323 291.88 733.83 290.88L735.18 290.97L736.18 290.78C736.38 291.844 736.805 292.852 737.426 293.738C738.046 294.625 738.849 295.368 739.78 295.92C744.25 298.45 750.78 295.92 751.05 295.87L751.39 295.74L753.79 286.81L753.67 286.49ZM750.28 294.61C748.95 295.06 743.93 296.54 740.56 294.61C739.721 294.084 739.014 293.372 738.494 292.53C737.974 291.687 737.654 290.736 737.56 289.75L737.44 289.02L735.25 289.47L733.05 289.39L732.84 289.81C732.439 290.718 731.834 291.523 731.073 292.161C730.312 292.799 729.415 293.253 728.45 293.49C724.68 294.3 720.32 291.38 719.18 290.55L719.51 282.75C725.17 278.94 731.41 285.12 733.21 287.14L733.4 287.35L737.05 287.71L737.27 287.56C737.37 287.5 746.44 281.41 751.61 286.31C751.866 286.548 752.104 286.805 752.32 287.08L750.28 294.61Z" fill="black"/>
<path opacity="0.1" d="M770.05 291.13L753.05 289.72L751.65 289.45L752.28 287.09C752.064 286.815 751.826 286.558 751.57 286.32L753.63 286.52L767.54 287.88L770.05 291.13Z" fill="black"/>
</g>
<path d="M753.85 285.85C748.57 278.65 738.5 284.56 736.85 285.59L734.26 285.33C732 282.87 725.07 276.33 718.56 281.14L718.28 281.35L717.89 290.58L718.17 290.8C720.05 292.252 722.183 293.343 724.46 294.02C725.902 294.444 727.423 294.519 728.9 294.24C729.993 293.988 731.017 293.499 731.899 292.808C732.782 292.117 733.503 291.24 734.01 290.24L735.36 290.33L736.36 290.14C736.56 291.203 736.985 292.212 737.606 293.098C738.226 293.985 739.029 294.728 739.96 295.28C744.43 297.81 750.96 295.28 751.23 295.23L751.57 295.1L753.97 286.17L753.85 285.85ZM750.46 293.97C749.13 294.42 744.11 295.9 740.74 293.97C739.901 293.444 739.194 292.732 738.674 291.889C738.154 291.047 737.834 290.096 737.74 289.11L737.62 288.38L735.43 288.83L733.26 288.69L733.05 289.11C732.656 290.024 732.056 290.834 731.299 291.479C730.541 292.124 729.645 292.586 728.68 292.83C724.91 293.64 720.55 290.72 719.41 289.89L719.74 282.09C725.4 278.28 731.64 284.46 733.44 286.48L733.63 286.69L737.28 287.05L737.5 286.9C737.6 286.84 746.67 280.75 751.84 285.65C752.096 285.888 752.334 286.145 752.55 286.42L750.46 293.97Z" fill="#472727"/>
<path d="M770.21 290.49L753.27 289.08L751.87 288.81L752.5 286.45C752.284 286.175 752.046 285.918 751.79 285.68L753.85 285.88L767.76 287.24L770.21 290.49Z" fill="#472727"/>
<path d="M654.04 395.8H357.14V515.57H654.04V395.8Z" fill="#6F7D95"/>
<path d="M493.02 594.01C538.777 594.01 575.87 553.416 575.87 503.34C575.87 453.264 538.777 412.67 493.02 412.67C447.263 412.67 410.17 453.264 410.17 503.34C410.17 553.416 447.263 594.01 493.02 594.01Z" fill="#4B5C7A"/>
<path opacity="0.05" d="M493.02 594.01C538.777 594.01 575.87 553.416 575.87 503.34C575.87 453.264 538.777 412.67 493.02 412.67C447.263 412.67 410.17 453.264 410.17 503.34C410.17 553.416 447.263 594.01 493.02 594.01Z" fill="black"/>
<path d="M511.43 594.01C557.187 594.01 594.28 553.416 594.28 503.34C594.28 453.264 557.187 412.67 511.43 412.67C465.673 412.67 428.58 453.264 428.58 503.34C428.58 553.416 465.673 594.01 511.43 594.01Z" fill="#4B5C7A"/>
<path opacity="0.05" d="M509.59 540.62C529.925 540.62 546.41 524.135 546.41 503.8C546.41 483.465 529.925 466.98 509.59 466.98C489.255 466.98 472.77 483.465 472.77 503.8C472.77 524.135 489.255 540.62 509.59 540.62Z" fill="black"/>
<path d="M509.59 514.85C515.693 514.85 520.64 509.903 520.64 503.8C520.64 497.697 515.693 492.75 509.59 492.75C503.487 492.75 498.54 497.697 498.54 503.8C498.54 509.903 503.487 514.85 509.59 514.85Z" stroke="#6F7D95" stroke-width="2" stroke-miterlimit="10"/>
<path d="M509.59 487.23C511.114 487.23 512.35 485.994 512.35 484.47C512.35 482.946 511.114 481.71 509.59 481.71C508.066 481.71 506.83 482.946 506.83 484.47C506.83 485.994 508.066 487.23 509.59 487.23Z" fill="#6F7D95"/>
<path d="M526.467 491.914C527.635 490.934 527.787 489.193 526.807 488.026C525.827 486.858 524.086 486.706 522.919 487.686C521.751 488.665 521.599 490.406 522.579 491.574C523.558 492.742 525.299 492.894 526.467 491.914Z" fill="#6F7D95"/>
<path d="M533.057 505.279C533.322 503.778 532.319 502.346 530.818 502.082C529.317 501.817 527.886 502.819 527.621 504.32C527.356 505.822 528.358 507.253 529.86 507.518C531.361 507.783 532.792 506.78 533.057 505.279Z" fill="#6F7D95"/>
<path d="M523.828 521.154C525.149 520.392 525.601 518.704 524.839 517.384C524.077 516.063 522.389 515.611 521.068 516.373C519.748 517.136 519.296 518.824 520.058 520.144C520.82 521.464 522.508 521.916 523.828 521.154Z" fill="#6F7D95"/>
<path d="M509.297 522.648C509.818 521.215 509.08 519.632 507.647 519.11C506.215 518.589 504.631 519.328 504.11 520.76C503.588 522.192 504.327 523.776 505.759 524.297C507.192 524.819 508.776 524.08 509.297 522.648Z" fill="#6F7D95"/>
<path d="M495.268 514.124C496.7 513.603 497.438 512.019 496.917 510.586C496.396 509.154 494.812 508.416 493.38 508.937C491.947 509.458 491.209 511.042 491.73 512.474C492.251 513.907 493.835 514.645 495.268 514.124Z" fill="#6F7D95"/>
<path d="M496.555 496.881C497.317 495.561 496.865 493.873 495.545 493.111C494.225 492.349 492.537 492.801 491.775 494.121C491.012 495.442 491.465 497.13 492.785 497.892C494.105 498.654 495.793 498.202 496.555 496.881Z" fill="#6F7D95"/>
<path d="M1106.74 433.27C1103.91 452.81 1096.04 474.2 1096.04 474.2C1096.09 472.867 1096.13 471.55 1096.14 470.25C1096.14 468.57 1096.14 466.91 1096.14 465.25C1095.14 411.39 1065.79 378.16 1046.86 362.25C1041.94 358.057 1036.65 354.322 1031.05 351.09H1082.5C1082.5 351.09 1102.74 392.42 1106.96 412.66C1108.18 418.34 1107.84 425.67 1106.74 433.27Z" fill="#000454"/>
<path opacity="0.05" d="M1116.69 436.18C1113.86 455.72 1105.99 477.11 1105.99 477.11C1106.04 475.777 1106.08 474.46 1106.09 473.16C1106.09 471.48 1106.09 469.82 1106.09 468.16C1105.09 414.3 1075.74 381.07 1056.81 365.16C1051.89 360.967 1046.6 357.232 1041 354H1092.45C1092.45 354 1112.69 395.33 1116.91 415.57C1118.13 421.25 1117.79 428.58 1116.69 436.18Z" fill="#000454"/>
<path d="M1019.02 503.98C1053.82 503.98 1082.03 473.106 1082.03 435.02C1082.03 396.934 1053.82 366.06 1019.02 366.06C984.221 366.06 956.01 396.934 956.01 435.02C956.01 473.106 984.221 503.98 1019.02 503.98Z" fill="#4B5C7A"/>
<path opacity="0.05" d="M1019.02 503.98C1053.82 503.98 1082.03 473.106 1082.03 435.02C1082.03 396.934 1053.82 366.06 1019.02 366.06C984.221 366.06 956.01 396.934 956.01 435.02C956.01 473.106 984.221 503.98 1019.02 503.98Z" fill="black"/>
<path d="M1033.02 503.98C1067.82 503.98 1096.03 473.106 1096.03 435.02C1096.03 396.934 1067.82 366.06 1033.02 366.06C998.221 366.06 970.01 396.934 970.01 435.02C970.01 473.106 998.221 503.98 1033.02 503.98Z" fill="#4B5C7A"/>
<path opacity="0.05" d="M1031.62 463.37C1047.08 463.37 1059.62 450.834 1059.62 435.37C1059.62 419.906 1047.08 407.37 1031.62 407.37C1016.16 407.37 1003.62 419.906 1003.62 435.37C1003.62 450.834 1016.16 463.37 1031.62 463.37Z" fill="black"/>
<path d="M1031.62 443.77C1036.26 443.77 1040.02 440.009 1040.02 435.37C1040.02 430.731 1036.26 426.97 1031.62 426.97C1026.98 426.97 1023.22 430.731 1023.22 435.37C1023.22 440.009 1026.98 443.77 1031.62 443.77Z" stroke="#6F7D95" stroke-width="2" stroke-miterlimit="10"/>
<path d="M1031.62 422.77C1032.78 422.77 1033.72 421.83 1033.72 420.67C1033.72 419.51 1032.78 418.57 1031.62 418.57C1030.46 418.57 1029.52 419.51 1029.52 420.67C1029.52 421.83 1030.46 422.77 1031.62 422.77Z" fill="#6F7D95"/>
<path d="M1044.46 426.33C1045.35 425.585 1045.47 424.26 1044.72 423.372C1043.98 422.483 1042.65 422.368 1041.76 423.113C1040.87 423.859 1040.76 425.183 1041.5 426.072C1042.25 426.96 1043.57 427.076 1044.46 426.33Z" fill="#6F7D95"/>
<path d="M1049.47 436.504C1049.67 435.361 1048.91 434.272 1047.76 434.071C1046.62 433.869 1045.53 434.632 1045.33 435.774C1045.13 436.917 1045.89 438.006 1047.03 438.207C1048.18 438.408 1049.27 437.646 1049.47 436.504Z" fill="#6F7D95"/>
<path d="M1042.46 448.575C1043.46 447.995 1043.81 446.71 1043.23 445.706C1042.65 444.702 1041.36 444.358 1040.36 444.937C1039.35 445.517 1039.01 446.802 1039.59 447.806C1040.17 448.81 1041.45 449.155 1042.46 448.575Z" fill="#6F7D95"/>
<path d="M1031.4 449.708C1031.8 448.618 1031.24 447.413 1030.15 447.016C1029.06 446.619 1027.85 447.181 1027.46 448.271C1027.06 449.361 1027.62 450.566 1028.71 450.963C1029.8 451.359 1031.01 450.798 1031.4 449.708Z" fill="#6F7D95"/>
<path d="M1020.73 443.216C1021.82 442.82 1022.38 441.615 1021.98 440.525C1021.59 439.435 1020.38 438.873 1019.29 439.27C1018.2 439.666 1017.64 440.871 1018.04 441.961C1018.43 443.051 1019.64 443.613 1020.73 443.216Z" fill="#6F7D95"/>
<path d="M1021.72 430.106C1022.3 429.102 1021.96 427.817 1020.95 427.237C1019.95 426.657 1018.66 427.002 1018.08 428.006C1017.5 429.01 1017.85 430.295 1018.85 430.875C1019.86 431.454 1021.14 431.11 1021.72 430.106Z" fill="#6F7D95"/>
<path d="M157.67 512.62L150.05 452.73H240.3L286.69 494.06L263.92 547.2C263.92 547.2 172.05 532.02 157.67 512.62Z" fill="#FFA17A"/>
<path opacity="0.05" d="M196.47 794.82L173.7 847.96C173.7 847.96 81.8 832.78 67.42 813.38L67.09 810.77L60.09 755.39L60.02 754.84L59.85 753.5H150.1L196.47 794.82Z" fill="black"/>
<path d="M660.38 268.86V288.26C660.38 288.26 613.74 326.26 602.64 362.11C600.702 367.932 599.971 374.087 600.49 380.2C604.71 419.84 479.05 348.14 479.05 348.14L484.64 345.42C513.53 331.49 645.37 268.1 660.38 268.86Z" fill="#7597CE"/>
<path d="M766.66 362.49C766.66 362.49 810.34 341.03 817.35 325.15C818.29 323.02 819.18 320.87 820.22 318.78C824.55 310.07 833.65 289.64 829.07 279.83C823.17 267.18 843.41 281.52 843.41 281.52L831.6 341.39L802.92 357.39L765.81 362.49" fill="#000454"/>
<path opacity="0.05" d="M817.35 390.5C817.35 390.5 861.03 369.04 868.04 353.16C868.98 351.03 869.87 348.88 870.91 346.79C875.24 338.08 884.34 317.65 879.76 307.84C873.86 295.19 894.1 309.53 894.1 309.53L882.29 369.4L853.61 385.4L816.5 390.5" fill="#000454"/>
<path opacity="0.05" d="M286.72 494.06L263.95 547.2C263.95 547.2 172.05 532.02 157.67 512.62L157.34 510.01C157.71 509.76 158.1 509.5 158.51 509.25C158.51 509.25 186.34 531.18 249.61 536.25C249.61 536.25 287.61 505.88 225.99 472.15C225.99 472.15 172.39 473.83 150.31 454.64L150.07 454.44L150.24 454.09C150.387 453.803 150.623 453.357 150.95 452.75H240.32L286.72 494.06Z" fill="black"/>
<path opacity="0.05" d="M600.49 380.19C604.71 419.84 479.05 348.14 479.05 348.14L484.64 345.42C488.34 349.36 503.11 362.65 532.64 361.21C551.64 360.28 580.49 361.13 602.69 362.1C600.736 367.918 599.987 374.073 600.49 380.19V380.19Z" fill="black"/>
<path opacity="0.05" d="M654.05 395.8V515.57H598.89C602.53 487.71 600.43 447.1 565.05 423.82C551.854 415.195 536.532 410.382 520.775 409.912C505.017 409.443 489.436 413.335 475.75 421.16C452.56 434.4 426.63 461.32 410.15 515.57H357.15V395.8H654.05Z" fill="black"/>
<path opacity="0.05" d="M1106.74 433.27C1104.66 446.49 1101.32 459.33 1096.15 470.27C1095.48 471.743 1094.76 473.18 1093.97 474.58C1094.1 474.09 1095.05 470.67 1096.15 465.29C1101.51 439.09 1110.68 366.59 1049.24 362.45C1048.44 362.4 1047.65 362.35 1046.86 362.32C1041.94 358.103 1036.65 354.344 1031.05 351.09H1082.5C1082.5 351.09 1102.74 392.42 1106.96 412.66C1108.18 418.34 1107.84 425.67 1106.74 433.27Z" fill="black"/>
<path d="M1095.64 473.76C1096.44 470.87 1124.94 366.63 1050.91 361.64C975.84 356.58 966.56 413.09 958.13 489.85C958.13 489.85 721.13 507.56 593.75 544.68C593.75 544.68 624.33 460.88 566.75 422.98C553.554 414.355 538.232 409.542 522.475 409.072C506.717 408.603 491.136 412.495 477.45 420.32C449.05 436.54 416.52 473.32 402.29 555.64H260.57C260.57 555.64 233.57 557.33 224.3 544.64C224.3 544.64 186.3 545.48 162.73 525.24C162.73 525.24 137.43 520.18 157.67 507.53C157.67 507.53 186.35 529.46 249.61 534.53C249.61 534.53 287.61 504.16 225.99 470.43C225.99 470.43 171.99 472.12 150.08 452.72C150.08 452.72 157.77 436.81 175.32 417.56C199.324 391.155 229.91 371.599 263.95 360.89C286.887 353.799 310.794 350.351 334.8 350.67L483.67 346.03C483.67 346.03 498.05 364.59 532.59 362.9C567.13 361.21 634.65 365.43 634.65 365.43H635.32L774.24 359.14C778.229 358.577 782.175 357.742 786.05 356.64C806.19 351.17 844.39 334.58 837.5 288.25L1055.96 301.75C1064.19 302.128 1072.37 303.284 1080.39 305.2C1091.61 308.08 1101.87 313.34 1098.98 322.84C1093.08 342.24 1109.1 344.77 1109.1 344.77C1109.1 344.77 1109.44 347.36 1109.86 351.86C1111.86 373.08 1115.79 436.88 1095.64 473.76Z" fill="#000454"/>
<path opacity="0.05" d="M427.58 381.04C427.58 381.04 336.48 381.88 276.58 435.04H310.32C310.32 435.04 404.79 410.58 427.56 391.18L427.58 381.04Z" fill="black"/>
<path d="M426.73 380.19C426.73 380.19 335.63 381.03 275.73 434.19H309.47C309.47 434.19 403.94 409.73 426.71 390.33L426.73 380.19Z" fill="#FFA17A"/>
<path opacity="0.05" d="M264.79 361.74V384.41L188.05 419.84L176.17 418.41C200.171 392.007 230.753 372.45 264.79 361.74V361.74Z" fill="black"/>
<path d="M263.94 360.9V383.57L187.19 418.99L175.31 417.56C199.315 391.159 229.901 371.606 263.94 360.9Z" fill="#FFA17A"/>
<path opacity="0.05" d="M372.75 463.7C372.75 463.7 331.42 489 327.2 544.7H350.82C350.82 544.7 360.1 483.97 387.09 463.7H372.75Z" fill="black"/>
<path opacity="0.05" d="M861.13 465.39L646.88 490.69C646.88 490.69 632.71 400.49 635.33 365.4L774.25 359.11C778.235 358.556 782.177 357.731 786.05 356.64V365.01L890.64 339.71C890.64 339.71 908.36 365.85 861.13 465.39Z" fill="#66AAA7"/>
<path d="M837.51 263.79C837.51 263.79 883.06 257.89 903.3 296.69L838.16 294.18L837.51 263.79Z" fill="#000454"/>
<path opacity="0.05" d="M900.14 310.29C898.35 315.9 899.7 322.07 910.07 326.34C918.7 329.9 928.82 325.78 931.77 316.93C933.49 311.77 932.31 305.93 923.01 301.18C913.71 296.43 903.27 300.49 900.14 310.29Z" fill="black"/>
<path d="M151.68 465.37C151.68 465.37 205.74 493.37 244.54 482.77" stroke="#000454" stroke-miterlimit="10"/>
<path d="M153.59 480.49C153.59 480.49 188.52 507.43 259.12 501.17" stroke="#000454" stroke-miterlimit="10"/>
<path d="M155.2 493.18C155.2 493.18 189.85 523.25 261.05 513.72" stroke="#000454" stroke-miterlimit="10"/>
<path opacity="0.05" d="M900.69 292.16C900.69 292.16 872.51 316.49 846.79 327.49C846.79 327.49 885.85 334.44 900.69 292.16Z" fill="black"/>
<path opacity="0.1" d="M602.15 363.77C602.15 363.77 735.87 376.4 786.47 364.59C786.47 364.59 789.17 366.38 773.06 359.16L602.15 363.77Z" fill="black"/>
<path opacity="0.05" d="M1109.87 351.86C1101.54 346.39 1088.33 335.04 1090.13 322.41C1091.03 316.08 1086.55 310.16 1080.4 305.19C1091.62 308.07 1101.88 313.33 1098.99 322.83C1093.09 342.23 1109.11 344.76 1109.11 344.76C1109.11 344.76 1109.44 347.36 1109.87 351.86Z" fill="black"/>
<path opacity="0.02" d="M410.52 410.31L399.27 446.02L399 446.72C397.49 447.06 365.61 454.39 358.73 456.64H358.04L375.85 409.49L376.36 408.13L382.15 408.5L410.52 410.31Z" fill="black"/>
<path opacity="0.1" d="M434.53 430.08C430.72 427.17 423.53 422.64 416.91 423.64L418.07 418.83C418.07 418.83 428.27 415.64 431.87 418.83C433.19 419.99 434.1 424.56 434.53 430.08Z" fill="black"/>
<path opacity="0.1" d="M305.48 362.68C305.48 362.68 328.58 364.27 334.95 359.49C326.567 365.911 316.66 370.046 306.2 371.49L305.48 362.68Z" fill="black"/>
<path d="M908.17 415.32C908.17 415.32 925.67 449.67 911.41 468.46C897.15 487.25 912.71 538.46 912.71 538.46" stroke="#66AAA7" stroke-miterlimit="10"/>
<path d="M913.35 404.63C913.35 411.25 908.49 416.63 908.49 416.63C908.49 416.63 903.63 411.26 903.63 404.63C903.63 398 908.49 392.63 908.49 392.63C908.49 392.63 913.35 398.01 913.35 404.63Z" fill="#66AAA7"/>
<path d="M917.24 415.32C917.24 415.32 899.74 449.67 914 468.46C928.26 487.25 912.7 538.46 912.7 538.46" stroke="#66AAA7" stroke-miterlimit="10"/>
<path d="M912.05 404.63C912.05 411.25 916.91 416.63 916.91 416.63C916.91 416.63 921.77 411.26 921.77 404.63C921.77 398 916.91 392.63 916.91 392.63C916.91 392.63 912.05 398.01 912.05 404.63Z" fill="#66AAA7"/>
<path d="M924.37 415.32C924.37 415.32 941.87 449.67 927.61 468.46C913.35 487.25 928.91 538.46 928.91 538.46" stroke="#66AAA7" stroke-miterlimit="10"/>
<path d="M929.55 404.63C929.55 411.25 924.69 416.63 924.69 416.63C924.69 416.63 919.83 411.26 919.83 404.63C919.83 398 924.69 392.63 924.69 392.63C924.69 392.63 929.55 398.01 929.55 404.63Z" fill="#66AAA7"/>
<path d="M926.83 432.15C922.24 436.92 915.01 437.42 915.01 437.42C915.01 437.42 915.23 430.18 919.82 425.42C924.41 420.66 931.64 420.15 931.64 420.15C931.64 420.15 931.42 427.38 926.83 432.15Z" fill="#66AAA7"/>
<path d="M927.28 455.85C922.69 460.62 915.46 461.12 915.46 461.12C915.46 461.12 915.68 453.88 920.27 449.12C924.86 444.36 932.05 443.84 932.05 443.84C932.05 443.84 931.87 451.07 927.28 455.85Z" fill="#66AAA7"/>
<path d="M902.39 468.88C906.73 473.88 906.58 481.12 906.58 481.12C906.58 481.12 899.39 480.25 895.05 475.25C890.71 470.25 890.86 463.01 890.86 463.01C890.86 463.01 898.05 463.88 902.39 468.88Z" fill="#66AAA7"/>
<path d="M906.42 418.35C911.94 422.01 913.73 429.03 913.73 429.03C913.73 429.03 906.56 430.11 901.05 426.49C895.54 422.87 893.74 415.81 893.74 415.81C893.74 415.81 900.9 414.69 906.42 418.35Z" fill="#66AAA7"/>
<path d="M933.44 415.32C933.44 415.32 915.94 449.67 930.2 468.46C944.46 487.25 928.9 538.46 928.9 538.46" stroke="#66AAA7" stroke-miterlimit="10"/>
<path d="M928.26 404.63C928.26 411.25 933.12 416.63 933.12 416.63C933.12 416.63 937.98 411.26 937.98 404.63C937.98 398 933.12 392.63 933.12 392.63C933.12 392.63 928.26 398.01 928.26 404.63Z" fill="#66AAA7"/>
<path d="M929.66 432.66C925.01 437.38 924.66 444.66 924.66 444.66C924.66 444.66 931.89 444.25 936.54 439.53C941.19 434.81 941.54 427.53 941.54 427.53C941.54 427.53 934.3 427.94 929.66 432.66Z" fill="#66AAA7"/>
<path d="M938.77 465.49C934.12 470.21 933.77 477.49 933.77 477.49C933.77 477.49 941 477.08 945.65 472.36C950.3 467.64 950.65 460.36 950.65 460.36C950.65 460.36 943.42 460.75 938.77 465.49Z" fill="#66AAA7"/>
<path d="M925.36 458.26C925.36 458.26 935.89 441.66 950.68 441.26" stroke="#66AAA7" stroke-miterlimit="10"/>
<path d="M917.16 448.23C917.16 448.23 906.63 431.63 891.84 431.23" stroke="#66AAA7" stroke-miterlimit="10"/>
<path d="M915.79 471.93C915.79 471.93 926.32 455.33 941.11 454.93" stroke="#66AAA7" stroke-miterlimit="10"/>
<path d="M950.19 443.9C951.698 443.9 952.92 442.678 952.92 441.17C952.92 439.662 951.698 438.44 950.19 438.44C948.682 438.44 947.46 439.662 947.46 441.17C947.46 442.678 948.682 443.9 950.19 443.9Z" fill="#66AAA7"/>
<path d="M892.09 434.1C893.598 434.1 894.82 432.878 894.82 431.37C894.82 429.862 893.598 428.64 892.09 428.64C890.582 428.64 889.36 429.862 889.36 431.37C889.36 432.878 890.582 434.1 892.09 434.1Z" fill="#66AAA7"/>
<path d="M923.54 477.4C923.54 477.4 913.01 460.8 898.22 460.4" stroke="#66AAA7" stroke-miterlimit="10"/>
<path d="M898.47 463.27C899.978 463.27 901.2 462.048 901.2 460.54C901.2 459.032 899.978 457.81 898.47 457.81C896.962 457.81 895.74 459.032 895.74 460.54C895.74 462.048 896.962 463.27 898.47 463.27Z" fill="#66AAA7"/>
<path d="M941.31 457.8C942.818 457.8 944.04 456.578 944.04 455.07C944.04 453.562 942.818 452.34 941.31 452.34C939.802 452.34 938.58 453.562 938.58 455.07C938.58 456.578 939.802 457.8 941.31 457.8Z" fill="#66AAA7"/>
<path d="M981.76 518.49C981.76 518.49 956.38 513.41 949.61 506.64C942.84 499.87 912.38 488.06 909 496.49C905.62 504.92 863.31 533.75 892.05 538.82C920.79 543.89 959.74 545.59 968.2 542.2C976.66 538.81 981.76 518.49 981.76 518.49Z" fill="#A8A8A8"/>
<path opacity="0.2" d="M892.05 535.68C920.82 540.76 959.74 542.45 968.2 539.06C974.64 536.48 979.12 524.06 980.89 518.34L981.74 518.52C981.74 518.52 976.66 538.83 968.2 542.21C959.74 545.59 920.82 543.9 892.05 538.83C883.75 537.36 881.37 533.92 882.27 529.57C883 532.4 885.89 534.59 892.05 535.68Z" fill="black"/>
<path d="M237.32 603.15C237.32 603.15 245.7 614.15 233.45 630.65C221.2 647.15 211.1 661.16 215.19 671.49C215.19 671.49 233.67 640.76 248.71 640.33C263.75 639.9 253.86 621.63 237.32 603.15Z" fill="#66AAA7"/>
<path opacity="0.1" d="M237.32 603.15C238.05 604.21 238.626 605.368 239.03 606.59C253.71 623.83 261.52 639.92 247.42 640.33C234.28 640.71 218.52 664.2 214.74 670.14C214.865 670.598 215.015 671.049 215.19 671.49C215.19 671.49 233.67 640.76 248.71 640.33C263.75 639.9 253.86 621.63 237.32 603.15Z" fill="black"/>
<path d="M252.9 617.11C252.9 620.97 252.47 624.11 251.9 624.11C251.33 624.11 250.9 620.98 250.9 617.11C250.9 613.24 251.44 615.11 251.97 615.11C252.5 615.11 252.9 613.26 252.9 617.11Z" fill="#FFD037"/>
<path d="M258.24 621.72C254.85 623.57 251.9 624.72 251.65 624.21C251.4 623.7 253.93 621.86 257.32 620.02C260.71 618.18 259.37 619.52 259.63 620.02C259.89 620.52 261.63 619.87 258.24 621.72Z" fill="#FFD037"/>
<path d="M193.05 603.15C193.05 603.15 184.67 614.15 196.92 630.65C209.17 647.15 219.27 661.16 215.18 671.48C215.18 671.48 196.7 640.75 181.66 640.32C166.62 639.89 176.51 621.63 193.05 603.15Z" fill="#66AAA7"/>
<path opacity="0.1" d="M193.05 603.15C192.32 604.21 191.744 605.368 191.34 606.59C176.66 623.83 168.85 639.92 182.95 640.33C196.09 640.71 211.85 664.2 215.63 670.14C215.505 670.598 215.355 671.049 215.18 671.49C215.18 671.49 196.7 640.76 181.66 640.33C166.62 639.9 176.51 621.63 193.05 603.15Z" fill="black"/>
<path d="M177.47 617.11C177.47 620.97 177.9 624.11 178.47 624.11C179.04 624.11 179.47 620.98 179.47 617.11C179.47 613.24 178.93 615.11 178.4 615.11C177.87 615.11 177.47 613.26 177.47 617.11Z" fill="#FFD037"/>
<path d="M172.13 621.72C175.52 623.57 178.47 624.72 178.72 624.21C178.97 623.7 176.44 621.86 173.05 620.02C169.66 618.18 171 619.52 170.74 620.02C170.48 620.52 168.74 619.87 172.13 621.72Z" fill="#FFD037"/>
<path d="M180.14 670.04C180.14 670.04 203.57 669.32 210.63 664.29C217.69 659.26 246.63 653.29 248.42 661.29C250.21 669.29 283.63 701.4 257.18 701.61C230.73 701.82 195.72 697.49 188.67 693.2C181.62 688.91 180.14 670.04 180.14 670.04Z" fill="#A8A8A8"/>
<path opacity="0.2" d="M257.66 698.84C231.21 699.05 196.2 694.72 189.15 690.43C183.78 687.16 181.64 675.43 180.93 670.02H180.15C180.15 670.02 181.63 688.92 188.68 693.21C195.73 697.5 230.74 701.84 257.19 701.62C264.83 701.56 267.46 698.84 267.32 694.82C266.25 697.28 263.34 698.79 257.66 698.84Z" fill="black"/>
<path d="M322.312 101.281H336.75L328.688 80.0938L322.312 101.281ZM313.5 132.031L307.125 130.531L326.438 69.4062H330.562L353.25 130.906L347.25 132.594L338.438 107.094H320.812L313.5 132.031ZM363.562 133.156L360.562 129.406C360.188 120.031 359.906 110.875 359.719 101.938C359.594 93 359.375 83.8438 359.062 74.4688L361.875 71.0938C363 70.9688 364.094 70.875 365.156 70.8125C366.281 70.75 367.375 70.7188 368.438 70.7188C372.812 70.7188 376.812 71.2812 380.438 72.4062C384.125 73.5312 387.281 75.3125 389.906 77.75C392.531 80.1875 394.562 83.3125 396 87.125C397.5 90.9375 398.25 95.5 398.25 100.812C398.25 105.562 397.375 109.938 395.625 113.938C393.938 117.875 391.594 121.281 388.594 124.156C385.594 126.969 382.062 129.188 378 130.812C374 132.375 369.688 133.156 365.062 133.156H363.562ZM364.875 76.9062L366.75 126.969C370.375 126.594 373.75 125.719 376.875 124.344C380 122.906 382.688 121.062 384.938 118.812C387.25 116.562 389.031 113.938 390.281 110.938C391.594 107.875 392.25 104.562 392.25 101C392.25 97.1875 391.781 93.7812 390.844 90.7812C389.969 87.7812 388.531 85.25 386.531 83.1875C384.594 81.125 382.062 79.5625 378.938 78.5C375.812 77.375 372.062 76.8125 367.688 76.8125C367.25 76.8125 366.781 76.8438 366.281 76.9062C365.844 76.9062 365.375 76.9062 364.875 76.9062ZM408.562 133.156L405.562 129.406C405.188 120.031 404.906 110.875 404.719 101.938C404.594 93 404.375 83.8438 404.062 74.4688L406.875 71.0938C408 70.9688 409.094 70.875 410.156 70.8125C411.281 70.75 412.375 70.7188 413.438 70.7188C417.812 70.7188 421.812 71.2812 425.438 72.4062C429.125 73.5312 432.281 75.3125 434.906 77.75C437.531 80.1875 439.562 83.3125 441 87.125C442.5 90.9375 443.25 95.5 443.25 100.812C443.25 105.562 442.375 109.938 440.625 113.938C438.938 117.875 436.594 121.281 433.594 124.156C430.594 126.969 427.062 129.188 423 130.812C419 132.375 414.688 133.156 410.062 133.156H408.562ZM409.875 76.9062L411.75 126.969C415.375 126.594 418.75 125.719 421.875 124.344C425 122.906 427.688 121.062 429.938 118.812C432.25 116.562 434.031 113.938 435.281 110.938C436.594 107.875 437.25 104.562 437.25 101C437.25 97.1875 436.781 93.7812 435.844 90.7812C434.969 87.7812 433.531 85.25 431.531 83.1875C429.594 81.125 427.062 79.5625 423.938 78.5C420.812 77.375 417.062 76.8125 412.688 76.8125C412.25 76.8125 411.781 76.8438 411.281 76.9062C410.844 76.9062 410.375 76.9062 409.875 76.9062ZM486.938 101.281H501.375L493.312 80.0938L486.938 101.281ZM478.125 132.031L471.75 130.531L491.062 69.4062H495.188L517.875 130.906L511.875 132.594L503.062 107.094H485.438L478.125 132.031ZM213.469 205.156V251.281H206.156V193.156L212.719 192.219L241.219 242.844V189.969L249.656 190.906V249.594L239.156 251.281L213.469 205.156ZM297.094 244.531V251.094H261.469L258.094 246.594V197.094L261.844 191.656H292.031V197.094H264.656V218.094H293.906V223.156H264.281V244.531H297.094ZM315.844 250.156L303.656 191.094H310.781L319.406 239.281L328.781 194.844L337.031 195.406L346.406 237.031L358.594 189.219L364.969 189.781L349.406 252.031H342.844L332.531 206.094L322.969 250.156H315.844ZM430.969 219.594C430.406 216.469 429.656 213.531 428.719 210.781C427.781 208.031 426.625 205.656 425.25 203.656C423.938 201.594 422.406 199.969 420.656 198.781C418.906 197.594 416.938 197 414.75 197C412.312 197 410.219 197.594 408.469 198.781C406.719 199.906 405.25 201.406 404.062 203.281C402.938 205.156 402.094 207.281 401.531 209.656C400.969 212.031 400.688 214.469 400.688 216.969C400.688 219.906 401 223.062 401.625 226.438C402.25 229.812 403.219 232.938 404.531 235.812C405.844 238.625 407.5 240.969 409.5 242.844C411.562 244.719 413.969 245.656 416.719 245.656C419.406 245.656 421.688 245.062 423.562 243.875C425.438 242.625 426.938 241.031 428.062 239.094C429.25 237.094 430.094 234.875 430.594 232.438C431.094 230 431.344 227.594 431.344 225.219C431.344 224.281 431.312 223.344 431.25 222.406C431.188 221.406 431.094 220.469 430.969 219.594ZM437.156 218.844C437.281 219.844 437.375 220.844 437.438 221.844C437.5 222.781 437.531 223.75 437.531 224.75C437.531 228.062 437.125 231.375 436.312 234.688C435.5 237.938 434.281 240.875 432.656 243.5C431.031 246.125 428.969 248.25 426.469 249.875C423.969 251.5 421.031 252.312 417.656 252.312C414.594 252.312 411.656 251.531 408.844 249.969C406.031 248.344 403.531 246.062 401.344 243.125C399.219 240.125 397.5 236.531 396.188 232.344C394.938 228.156 394.312 223.438 394.312 218.188C394.312 214.75 394.719 211.406 395.531 208.156C396.344 204.906 397.594 202 399.281 199.438C400.969 196.875 403.094 194.812 405.656 193.25C408.219 191.688 411.25 190.906 414.75 190.906C418.312 190.906 421.406 191.812 424.031 193.625C426.656 195.375 428.875 197.625 430.688 200.375C432.5 203.125 433.938 206.156 435 209.469C436.062 212.719 436.781 215.844 437.156 218.844ZM448.969 190.531H480.094L479.719 196.719H451.031V218.281H481.031V224.469H450.656V251.281H443.719V193.906L448.969 190.531ZM493.406 190.531H524.531L524.156 196.719H495.469V218.281H525.469V224.469H495.094V251.281H488.156V193.906L493.406 190.531ZM572.906 244.531V251.094H537.281L533.906 246.594V197.094L537.656 191.656H567.844V197.094H540.469V218.094H569.719V223.156H540.094V244.531H572.906ZM586.781 225.219V256.719H579.844V196.906L584.344 192.781C585.781 192.594 587.219 192.438 588.656 192.312C590.156 192.188 591.625 192.125 593.062 192.125C596.438 192.125 599.719 192.469 602.906 193.156C606.094 193.781 608.938 194.812 611.438 196.25C613.938 197.625 615.938 199.406 617.438 201.594C619 203.781 619.781 206.438 619.781 209.562C619.781 212.375 619.281 214.75 618.281 216.688C617.281 218.625 615.938 220.25 614.25 221.562C612.562 222.812 610.656 223.781 608.531 224.469C606.406 225.094 604.219 225.531 601.969 225.781L616.781 249.406L611.906 252.781L595.406 226.156C593.906 226.156 592.438 226.125 591 226.062C589.562 226 588.156 225.719 586.781 225.219ZM587.156 219.594C589.594 220.281 592.406 220.625 595.594 220.625C597.656 220.625 599.75 220.469 601.875 220.156C604 219.781 605.906 219.188 607.594 218.375C609.344 217.5 610.75 216.344 611.812 214.906C612.875 213.469 613.406 211.688 613.406 209.562C613.406 207.75 612.938 206.125 612 204.688C611.062 203.25 609.75 202.062 608.062 201.125C606.438 200.125 604.5 199.375 602.25 198.875C600.062 198.312 597.688 198.031 595.125 198.031C593.938 198.031 592.75 198.094 591.562 198.219C590.375 198.344 589.156 198.531 587.906 198.781C587.594 202.094 587.375 205.594 587.25 209.281C587.188 212.969 587.156 216.406 587.156 219.594Z" fill="black"/>
<path d="M322.312 101.281H336.75L328.688 80.0938L322.312 101.281ZM313.5 132.031L307.125 130.531L326.438 69.4062H330.562L353.25 130.906L347.25 132.594L338.438 107.094H320.812L313.5 132.031ZM363.562 133.156L360.562 129.406C360.188 120.031 359.906 110.875 359.719 101.938C359.594 93 359.375 83.8438 359.062 74.4688L361.875 71.0938C363 70.9688 364.094 70.875 365.156 70.8125C366.281 70.75 367.375 70.7188 368.438 70.7188C372.812 70.7188 376.812 71.2812 380.438 72.4062C384.125 73.5312 387.281 75.3125 389.906 77.75C392.531 80.1875 394.562 83.3125 396 87.125C397.5 90.9375 398.25 95.5 398.25 100.812C398.25 105.562 397.375 109.938 395.625 113.938C393.938 117.875 391.594 121.281 388.594 124.156C385.594 126.969 382.062 129.188 378 130.812C374 132.375 369.688 133.156 365.062 133.156H363.562ZM364.875 76.9062L366.75 126.969C370.375 126.594 373.75 125.719 376.875 124.344C380 122.906 382.688 121.062 384.938 118.812C387.25 116.562 389.031 113.938 390.281 110.938C391.594 107.875 392.25 104.562 392.25 101C392.25 97.1875 391.781 93.7812 390.844 90.7812C389.969 87.7812 388.531 85.25 386.531 83.1875C384.594 81.125 382.062 79.5625 378.938 78.5C375.812 77.375 372.062 76.8125 367.688 76.8125C367.25 76.8125 366.781 76.8438 366.281 76.9062C365.844 76.9062 365.375 76.9062 364.875 76.9062ZM408.562 133.156L405.562 129.406C405.188 120.031 404.906 110.875 404.719 101.938C404.594 93 404.375 83.8438 404.062 74.4688L406.875 71.0938C408 70.9688 409.094 70.875 410.156 70.8125C411.281 70.75 412.375 70.7188 413.438 70.7188C417.812 70.7188 421.812 71.2812 425.438 72.4062C429.125 73.5312 432.281 75.3125 434.906 77.75C437.531 80.1875 439.562 83.3125 441 87.125C442.5 90.9375 443.25 95.5 443.25 100.812C443.25 105.562 442.375 109.938 440.625 113.938C438.938 117.875 436.594 121.281 433.594 124.156C430.594 126.969 427.062 129.188 423 130.812C419 132.375 414.688 133.156 410.062 133.156H408.562ZM409.875 76.9062L411.75 126.969C415.375 126.594 418.75 125.719 421.875 124.344C425 122.906 427.688 121.062 429.938 118.812C432.25 116.562 434.031 113.938 435.281 110.938C436.594 107.875 437.25 104.562 437.25 101C437.25 97.1875 436.781 93.7812 435.844 90.7812C434.969 87.7812 433.531 85.25 431.531 83.1875C429.594 81.125 427.062 79.5625 423.938 78.5C420.812 77.375 417.062 76.8125 412.688 76.8125C412.25 76.8125 411.781 76.8438 411.281 76.9062C410.844 76.9062 410.375 76.9062 409.875 76.9062ZM486.938 101.281H501.375L493.312 80.0938L486.938 101.281ZM478.125 132.031L471.75 130.531L491.062 69.4062H495.188L517.875 130.906L511.875 132.594L503.062 107.094H485.438L478.125 132.031ZM213.469 205.156V251.281H206.156V193.156L212.719 192.219L241.219 242.844V189.969L249.656 190.906V249.594L239.156 251.281L213.469 205.156ZM297.094 244.531V251.094H261.469L258.094 246.594V197.094L261.844 191.656H292.031V197.094H264.656V218.094H293.906V223.156H264.281V244.531H297.094ZM315.844 250.156L303.656 191.094H310.781L319.406 239.281L328.781 194.844L337.031 195.406L346.406 237.031L358.594 189.219L364.969 189.781L349.406 252.031H342.844L332.531 206.094L322.969 250.156H315.844ZM430.969 219.594C430.406 216.469 429.656 213.531 428.719 210.781C427.781 208.031 426.625 205.656 425.25 203.656C423.938 201.594 422.406 199.969 420.656 198.781C418.906 197.594 416.938 197 414.75 197C412.312 197 410.219 197.594 408.469 198.781C406.719 199.906 405.25 201.406 404.062 203.281C402.938 205.156 402.094 207.281 401.531 209.656C400.969 212.031 400.688 214.469 400.688 216.969C400.688 219.906 401 223.062 401.625 226.438C402.25 229.812 403.219 232.938 404.531 235.812C405.844 238.625 407.5 240.969 409.5 242.844C411.562 244.719 413.969 245.656 416.719 245.656C419.406 245.656 421.688 245.062 423.562 243.875C425.438 242.625 426.938 241.031 428.062 239.094C429.25 237.094 430.094 234.875 430.594 232.438C431.094 230 431.344 227.594 431.344 225.219C431.344 224.281 431.312 223.344 431.25 222.406C431.188 221.406 431.094 220.469 430.969 219.594ZM437.156 218.844C437.281 219.844 437.375 220.844 437.438 221.844C437.5 222.781 437.531 223.75 437.531 224.75C437.531 228.062 437.125 231.375 436.312 234.688C435.5 237.938 434.281 240.875 432.656 243.5C431.031 246.125 428.969 248.25 426.469 249.875C423.969 251.5 421.031 252.312 417.656 252.312C414.594 252.312 411.656 251.531 408.844 249.969C406.031 248.344 403.531 246.062 401.344 243.125C399.219 240.125 397.5 236.531 396.188 232.344C394.938 228.156 394.312 223.438 394.312 218.188C394.312 214.75 394.719 211.406 395.531 208.156C396.344 204.906 397.594 202 399.281 199.438C400.969 196.875 403.094 194.812 405.656 193.25C408.219 191.688 411.25 190.906 414.75 190.906C418.312 190.906 421.406 191.812 424.031 193.625C426.656 195.375 428.875 197.625 430.688 200.375C432.5 203.125 433.938 206.156 435 209.469C436.062 212.719 436.781 215.844 437.156 218.844ZM448.969 190.531H480.094L479.719 196.719H451.031V218.281H481.031V224.469H450.656V251.281H443.719V193.906L448.969 190.531ZM493.406 190.531H524.531L524.156 196.719H495.469V218.281H525.469V224.469H495.094V251.281H488.156V193.906L493.406 190.531ZM572.906 244.531V251.094H537.281L533.906 246.594V197.094L537.656 191.656H567.844V197.094H540.469V218.094H569.719V223.156H540.094V244.531H572.906ZM586.781 225.219V256.719H579.844V196.906L584.344 192.781C585.781 192.594 587.219 192.438 588.656 192.312C590.156 192.188 591.625 192.125 593.062 192.125C596.438 192.125 599.719 192.469 602.906 193.156C606.094 193.781 608.938 194.812 611.438 196.25C613.938 197.625 615.938 199.406 617.438 201.594C619 203.781 619.781 206.438 619.781 209.562C619.781 212.375 619.281 214.75 618.281 216.688C617.281 218.625 615.938 220.25 614.25 221.562C612.562 222.812 610.656 223.781 608.531 224.469C606.406 225.094 604.219 225.531 601.969 225.781L616.781 249.406L611.906 252.781L595.406 226.156C593.906 226.156 592.438 226.125 591 226.062C589.562 226 588.156 225.719 586.781 225.219ZM587.156 219.594C589.594 220.281 592.406 220.625 595.594 220.625C597.656 220.625 599.75 220.469 601.875 220.156C604 219.781 605.906 219.188 607.594 218.375C609.344 217.5 610.75 216.344 611.812 214.906C612.875 213.469 613.406 211.688 613.406 209.562C613.406 207.75 612.938 206.125 612 204.688C611.062 203.25 609.75 202.062 608.062 201.125C606.438 200.125 604.5 199.375 602.25 198.875C600.062 198.312 597.688 198.031 595.125 198.031C593.938 198.031 592.75 198.094 591.562 198.219C590.375 198.344 589.156 198.531 587.906 198.781C587.594 202.094 587.375 205.594 587.25 209.281C587.188 212.969 587.156 216.406 587.156 219.594Z" fill="url(#paint2_linear)"/>
</g>
<defs>
<linearGradient id="paint0_linear" x1="630.69" y1="596.95" x2="630.69" y2="242.37" gradientUnits="userSpaceOnUse">
<stop stop-color="#808080" stop-opacity="0.25"/>
<stop offset="0.54" stop-color="#808080" stop-opacity="0.12"/>
<stop offset="1" stop-color="#808080" stop-opacity="0.1"/>
</linearGradient>
<linearGradient id="paint1_linear" x1="69179" y1="174448" x2="87385.9" y2="106830" gradientUnits="userSpaceOnUse">
<stop stop-color="#808080" stop-opacity="0.25"/>
<stop offset="0.54" stop-color="#808080" stop-opacity="0.12"/>
<stop offset="1" stop-color="#808080" stop-opacity="0.1"/>
</linearGradient>
<linearGradient id="paint2_linear" x1="412.5" y1="42" x2="412.5" y2="323" gradientUnits="userSpaceOnUse">
<stop stop-color="#7597CE"/>
<stop offset="1" stop-color="#4B5C7A"/>
</linearGradient>
<clipPath id="clip0">
<rect width="1024.09" height="784.98" fill="white" transform="translate(124)"/>
</clipPath>
</defs>
</svg>
